<svg version="1.2" xmlns="http://www.w3.org/2000/svg" viewBox="0 0 4096 4096" width="4096" height="4096"><defs><linearGradient id="P" gradientUnits="userSpaceOnUse"/><linearGradient id="g1" x2="1" href="#P" gradientTransform="matrix(-2477.569,-2477.569,2477.383,-2477.383,3286.397,3286.891)"><stop stop-color="#5b3fd1"/><stop offset="1" stop-color="#7c5ee8"/></linearGradient></defs><style>.a{fill:#f4effe;stroke:#7c5ee8;stroke-linecap:round;stroke-linejoin:round;stroke-width:120}.b{fill:#5874a9}.c{fill:url(#g1)}</style><path class="a" d="m3819 2637.3c0 268-143 515.5-375 649.5l-1021.1 589.4c-232.1 134-518 133.9-750-0.1l-1021-589.5c-232-134-374.9-381.6-374.9-649.6l0.1-1179c0-267.9 143-515.5 375.1-649.5l1021-589.4c232.1-133.9 518-133.9 750 0.1l1021 589.6c232 134 375 381.6 374.9 649.5z"/><filter id="f0"><feFlood flood-color="#7c5ee8" flood-opacity="1" /><feBlend mode="normal" in2="SourceGraphic"/><feComposite in2="SourceAlpha" operator="in" /></filter><g filter="url(#f0)"><path class="b" d="m555.2 2682q62.2 11.5 101.6-38-11.4 62.2 38.1 101.7-62.3-11.5-101.7 38 11.5-62.2-38-101.7z"/><path class="b" d="m2048.4 1723.9q78.1 17.3 130.1-43.4-17.4 78 43.3 130.1-78-17.4-130 43.3 17.3-78-43.4-130z"/><path class="b" d="m2310.3 404.3q-45.3-18.4-82.9 12.9 18.4-45.3-12.9-83 45.3 18.5 82.9-12.8-18.4 45.3 12.9 82.9z"/><path class="b" d="m1593.3 651.3q-45.3-18.4-82.9 12.9 18.4-45.3-12.9-83 45.3 18.5 82.9-12.8-18.4 45.3 12.9 82.9z"/><path class="b" d="m1239.3 3204.3q-45.3-18.4-82.9 12.9 18.4-45.3-12.9-83 45.3 18.5 82.9-12.8-18.4 45.3 12.9 82.9z"/><path class="b" d="m3594.7 2443.3q2-45.6-37.3-68.7 45.5 1.9 68.7-37.3-2 45.5 37.3 68.6-45.5-1.9-68.7 37.4z"/><path class="b" d="m3300.3 2851.5q42.9-53.7 15.6-116.9 53.8 42.9 116.9 15.6-42.8 53.8-15.5 116.9-53.8-42.8-117-15.6z"/><path class="b" d="m2367.3 3500.2q79.5 26.5 140.3-31.1-26.5 79.5 31.2 140.2-79.5-26.5-140.3 31.2 26.5-79.5-31.2-140.3z"/><path class="b" d="m617.1 1681.8q-58.4-21.8-105.2 19.5 21.8-58.5-19.5-105.3 58.5 21.9 105.3-19.4-21.9 58.4 19.4 105.2z"/><path class="b" d="m3619.1 1750.8q-58.4-21.8-105.2 19.5 21.8-58.5-19.5-105.3 58.5 21.9 105.3-19.4-21.9 58.4 19.4 105.2z"/></g><path fill-rule="evenodd" class="c" d="m2016.1 681.9c86.6-8.2 177 16.8 255.3 55.8 43.5 21.8 85.8 46.4 129.7 67.5 55.5 26.3 113 47.4 171.8 62.9 83.9 21.8 169.1 37 254.9 45.6 65.4 7 127.1 5.8 190.4 25.9 54 16.7 104.3 45.5 147.7 84.6 77 70 122.9 168.6 120.4 279.5-0.6 28.2-2.1 56.5-3.5 84.6q-4.3 89.1-11.3 178.1c-31.9 406.3-118 965.4-357.9 1284.6-35.1 47.5-74.9 90.3-118.8 127.8-42.3 35.5-91.4 66-137 96.6q-88.5 59.7-176.5 120.6-75 51.9-149.3 104.7c-91.2 64.9-139.3 102.1-250.2 113.6-63.5 5.8-127.5-4.5-186.9-30.2-49.7-21.7-94.5-57-139.5-88.9q-72.6-51.6-145.7-102.2-86.9-60-174.3-119.1c-52-34.9-114.4-74-160.1-117.4-320.9-304.9-419.4-957.1-452.3-1403.4q-6.5-84.5-10.4-169.2c-1.7-35-5-77-3.3-111.4 8.6-175.7 146.5-306.6 295.2-340.5 56.5-12.9 117-12.9 174.6-19.6 89.5-10.6 174.9-24.8 262.3-49.5 57-16.3 112.6-37.8 166.4-64.2 34-16.8 68.1-36.5 102.1-53.9 69.9-35.9 129.8-56.2 206.2-62.9zm52.8 2483.8c14.6-3.1 33.4-8.1 46.4-16.6 31.1-20.5 62-43.4 92.5-65l171.1-119.4q76.9-52.9 154.5-104.9c37.1-25 75.8-48.6 109.8-78.7 42.5-37.7 78.6-84.9 109.1-134.7 183.7-299.2 252-797.3 275.5-1157.1q4.2-63.4 7.3-126.8c3.5-70.1 11.3-121.3-49.6-165.6-16.1-11.6-34-19.5-52.9-23.4-18.9-3.9-41.2-4.9-60.7-6.4q-38.9-2.8-77.7-7.2c-97.8-9.9-194.8-27.6-290.3-52.9-64.8-17.4-128.3-40.3-189.9-68.4-35.6-16.3-70.8-33.7-105.4-52.4-70.3-37-102.5-60.5-183.6-55.8-56.2 6.6-110.5 41.6-161.8 68.3q-48.7 25.5-98.7 47.5c-90.5 39-184.4 67.8-280.2 86-67.5 13.2-135.5 23.2-203.7 30-70.4 7.3-153.4-2.3-201.7 65.8-30.9 43.6-20.1 102.5-17.5 154.9 5 100.9 12.6 201.6 22.9 302.1 33.8 329.2 127.6 885.7 370.1 1098.2 36.1 31.7 78 56.5 117.3 83q86.8 58.3 172.8 117.9l152.6 106.9c20.7 14.7 41.8 29.3 62.3 44.3 32.2 23.5 65.3 36 104.5 31.1q2.5-0.3 5-0.7zm-21.4-1958.1c3.1 7.6 8.2 41.6 10.3 51.4 4.5 21.7 9.4 43 14.6 64.6 21.3 90.4 50.9 178 88.5 261.7 105.9 231 262.2 382.4 484.9 463.1-78 28.9-139.7 58.8-208.8 109.4-228 167.1-338.5 441.6-390.4 729.2-3.2-7.4-10.6-51.1-13.1-62.8-4.2-19.1-8.7-39.1-13.4-58.3-21.3-89-50.7-175.3-87.9-257.7-105.7-229.3-262.2-381.7-484-461.5 77.1-29.3 138.2-57.8 206.9-108.2 231-169.2 338.7-440.7 392.4-730.9z"/></svg>